<svg xmlns="http://www.w3.org/2000/svg" xmlns:xlink="http://www.w3.org/1999/xlink" width="1080" zoomAndPan="magnify" viewBox="0 0 810 809.999993" height="1080" preserveAspectRatio="xMidYMid meet" version="1.0"><rect x="-81" width="972" fill="#ffffff" y="-80.999999" height="971.999992" fill-opacity="1"/><rect x="-81" width="972" fill="#000000" y="-80.999999" height="971.999992" fill-opacity="1"/><path fill="#ffffff" d="M 205.796875 219.21875 C 172.039062 233.199219 200 280.253906 290.355469 361.402344 C 295.46875 365.835938 303.992188 372.3125 309.789062 376.066406 L 320.019531 382.542969 L 257.964844 443.917969 C 207.5 494.039062 195.566406 507.679688 193.519531 517.226562 C 184.996094 562.574219 246.371094 534.617188 338.773438 451.078125 C 356.503906 435.050781 375.257812 416.980469 380.371094 411.527344 C 385.828125 405.730469 395.375 395.839844 402.191406 389.023438 C 413.785156 377.429688 415.148438 377.085938 420.265625 382.203125 C 423.332031 385.269531 438.335938 398.226562 452.996094 411.527344 C 488.457031 442.210938 526.304688 480.058594 526.304688 484.492188 C 526.304688 488.242188 496.980469 479.039062 478.230469 469.492188 C 461.863281 460.964844 428.449219 438.121094 410.035156 422.777344 C 392.644531 408.796875 386.847656 408.457031 378.324219 421.753906 C 372.871094 429.9375 373.210938 430.277344 404.921875 452.441406 C 500.050781 518.589844 549.492188 542.796875 589.042969 542.796875 C 620.753906 542.796875 629.621094 527.796875 613.59375 502.5625 C 592.113281 468.46875 462.203125 342.648438 452.316406 346.742188 C 443.792969 349.808594 455.042969 336.851562 472.773438 322.875 C 520.507812 285.367188 560.402344 265.933594 576.085938 273.09375 C 585.632812 277.183594 586.65625 287.414062 579.15625 302.414062 C 575.0625 310.257812 577.449219 308.894531 589.386719 295.597656 C 597.910156 286.050781 609.503906 269 615.296875 257.75 C 624.164062 239.675781 625.1875 235.585938 621.4375 229.789062 C 614.277344 218.195312 590.75 214.105469 565.515625 220.242188 C 526.648438 229.789062 471.410156 256.386719 433.5625 284.003906 C 420.945312 293.210938 409.011719 300.710938 407.308594 300.710938 C 405.601562 300.710938 402.191406 298.324219 399.804688 295.253906 C 391.621094 285.367188 345.933594 256.042969 317.292969 242.40625 C 273.988281 221.945312 223.867188 211.375 205.796875 219.21875 Z M 288.652344 289.117188 C 308.085938 298.664062 362.640625 336.171875 362.300781 339.921875 C 362.300781 341.628906 356.84375 347.765625 350.707031 352.878906 L 339.113281 362.425781 L 310.8125 333.445312 C 282.171875 304.460938 266.828125 283.664062 273.988281 283.664062 C 276.035156 283.664062 282.511719 286.050781 288.652344 289.117188 Z M 288.652344 289.117188 " fill-opacity="1" fill-rule="nonzero"/></svg>