<?xml version="1.0" standalone="no"?>
<!DOCTYPE svg PUBLIC "-//W3C//DTD SVG 20010904//EN"
 "http://www.w3.org/TR/2001/REC-SVG-20010904/DTD/svg10.dtd">
<svg version="1.0" xmlns="http://www.w3.org/2000/svg"
 width="500.000000pt" height="500.000000pt" viewBox="0 0 500.000000 500.000000"
 preserveAspectRatio="xMidYMid meet">

<g transform="translate(0.000000,500.000000) scale(0.100000,-0.100000)"
fill="#1b6fd6" stroke="none">
<path d="M1920 3459 c-99 -41 -17 -179 248 -417 15 -13 40 -32 57 -43 l30 -19
-182 -180 c-148 -147 -183 -187 -189 -215 -25 -133 155 -51 426 194 52 47 107
100 122 116 16 17 44 46 64 66 34 34 38 35 53 20 9 -9 53 -47 96 -86 104 -90
215 -201 215 -214 0 -11 -86 16 -141 44 -48 25 -146 92 -200 137 -51 41 -68
42 -93 3 -16 -24 -15 -25 78 -90 279 -194 424 -265 540 -265 93 0 119 44 72
118 -63 100 -444 469 -473 457 -25 -9 8 29 60 70 140 110 257 167 303 146 28
-12 31 -42 9 -86 -12 -23 -5 -19 30 20 25 28 59 78 76 111 26 53 29 65 18 82
-21 34 -90 46 -164 28 -114 -28 -276 -106 -387 -187 -37 -27 -72 -49 -77 -49
-5 0 -15 7 -22 16 -24 29 -158 115 -242 155 -127 60 -274 91 -327 68z m243
-205 c57 -28 217 -138 216 -149 0 -5 -16 -23 -34 -38 l-34 -28 -83 85 c-84 85
-129 146 -108 146 6 0 25 -7 43 -16z"/>
</g>
</svg>
